<svg xmlns="http://www.w3.org/2000/svg" viewBox="0 0 191.26 201.38"><defs><style>.cls-1{fill:#fff;}</style></defs><title>logo_baza_white</title><g id="Layer_2" data-name="Layer 2"><g id="Layer_1-2" data-name="Layer 1"><polygon class="cls-1" points="71.45 112.94 81.7 112.93 76.55 81.11 71.45 112.94"/><path class="cls-1" d="M36.67,104.31H32.14l0,23.7h4.53q3.87,0,5.5-2.67c1.09-1.78,1.63-4.85,1.63-9.19s-.56-7.22-1.69-9.08A5.91,5.91,0,0,0,36.67,104.31Z"/><polygon class="cls-1" points="142.08 112.89 152.33 112.88 147.18 81.06 142.08 112.89"/><path class="cls-1" d="M186,119.87h-3.6l0-37.56H186l0-26h-3.65V48.93l-179,.2v7.21H0l0,26H3.31l0,37.56H0l0,26H3.35v6.71l179-.2V145.9H186ZM52.4,127.47a16.12,16.12,0,0,1-3,6.52q-3.78,4.81-11.76,4.81l-14.86,0-.06-76h15q8,0,11.59,4.69a15.85,15.85,0,0,1,2.95,6.09,42.21,42.21,0,0,1,.85,9.5q0,8.76-3.44,13.24A9.47,9.47,0,0,1,46.5,99a11.33,11.33,0,0,1,3.27,2.77q3.45,4.49,3.46,15.27A51.14,51.14,0,0,1,52.4,127.47Zm33.51,11.3-2.44-15.06H69.61l-2.34,15.06H57.36L72,62.75h9.16l14.58,76Zm12.94,0v-9L115.09,73.5H99.81V62.73l25,0v9L108.67,128h16.21v10.78Zm57.69,0-2.44-15.06H140.24l-2.34,15.06H128l14.64-76.05h9.16l14.58,76Z"/><path class="cls-1" d="M42,91.71q1.59-2.46,1.59-7.91t-1.56-7.9q-1.56-2.34-5.25-2.34h-4.7V94.17h4.7Q40.45,94.17,42,91.71Z"/><rect class="cls-1" x="28.9" y="4.64" width="117.61" height="38.2" transform="translate(-1.62 7.09) rotate(-4.59)"/><path class="cls-1" d="M54.26,172.49l.57,6.54a38.32,38.32,0,0,1-.46,10.81l4.48-.39-1.49-17.23Z"/><path class="cls-1" d="M144.81,173.34c-.21-2.41-.41-4.2-.59-5.37a7.32,7.32,0,0,0-.74-2.53,1.56,1.56,0,0,0-2.83.24q-.56,1.41,0,8t1.36,7.9a1.48,1.48,0,0,0,1.48.79,1.51,1.51,0,0,0,1.35-1,7.14,7.14,0,0,0,.29-2.62C145.13,177.53,145,175.74,144.81,173.34Z"/><path class="cls-1" d="M70.77,176.87a6.62,6.62,0,0,0-.42-5,1.83,1.83,0,0,0-1.72-.6l-1.49.13.57,6.51,1.48-.13A1.83,1.83,0,0,0,70.77,176.87Z"/><path class="cls-1" d="M71.21,181.72a1.86,1.86,0,0,0-1.79-.73l-1.44.13.65,7.48,1.43-.12a1.92,1.92,0,0,0,1.67-1,6,6,0,0,0,.26-2.94A5.67,5.67,0,0,0,71.21,181.72Z"/><path class="cls-1" d="M188.32,152.52,16.12,167.45l2.95,33.93,172.19-14.92ZM35,194.94l-.91-10.48-3.69.32.91,10.48-3,.26-2.08-24,3-.25.88,10.11,3.68-.32L33,171l3-.26,2.08,24Zm6.15-.53-2.08-24,7.92-.68.3,3.4-5,.43.59,6.81,4.27-.37.29,3.4-4.27.37.61,7,5-.43.29,3.4Zm9.26-.71-.31-3.5,1.22-.1a39.56,39.56,0,0,0,.56-11.77l-.78-9L60,168.6l1.78,20.59,1.57-.14.3,3.51ZM75,187.88a5.15,5.15,0,0,1-.78,2.14,4.43,4.43,0,0,1-3.58,1.83l-4.69.41-2.08-24,4.72-.4A4.31,4.31,0,0,1,72.38,169a5,5,0,0,1,1.1,1.84,13.3,13.3,0,0,1,.52,3,6.81,6.81,0,0,1-.72,4.27,3,3,0,0,1-.91.93,3.42,3.42,0,0,1,1.11.79q1.22,1.32,1.51,4.72A16.8,16.8,0,0,1,75,187.88Zm10.33,2.7-1.28-14.69-3,15.06-2.62.23-2.08-24,3-.26,1.27,14.7,2.94-15.06,2.65-.23,2.08,24Zm8-.69-3.29.29,3.73-13.09-5.31-11,3.13-.28L96.79,177Zm4.64-.4-2.09-24,3-.26,2.08,24Zm7.6-.66-5.67-12.11,3.25-11.86,3.13-.27-3.34,11.7,5.92,12.25Zm11.74-1L116,173.12l-3,15.06-2.62.23-2.08-24,3-.26,1.27,14.7,2.94-15.06,2.65-.23,2.08,24Zm15.86-1.37-1.3-15-1.72,10.07-1.64.14-3.36-9.45L126.39,187l-3,.26-2.08-24,2.68-.23,4.75,12.29,2.54-12.92,2.7-.24,2.08,24Zm15-6.55a7.46,7.46,0,0,1-.85,3.52A4.29,4.29,0,0,1,140,184a8,8,0,0,1-1.43-3.35,64.2,64.2,0,0,1-.84-6.74,65.06,65.06,0,0,1-.33-6.78,8,8,0,0,1,.83-3.55,4.29,4.29,0,0,1,7.31-.63,7.42,7.42,0,0,1,1.44,3.32,67.88,67.88,0,0,1,.83,6.77C148.05,176.2,148.16,178.47,148.13,179.89Zm11.05,3a4,4,0,0,1-3.13,1.8,4.21,4.21,0,0,1-3.84-1.74,8.07,8.07,0,0,1-1.42-3.35,64.2,64.2,0,0,1-.84-6.74,62.34,62.34,0,0,1-.33-6.78,8.05,8.05,0,0,1,.82-3.55,4.2,4.2,0,0,1,3.48-2.37,4.13,4.13,0,0,1,3.45,1.26,7.89,7.89,0,0,1,1.95,4.92l-3,.26a5.52,5.52,0,0,0-.65-2.29,1.45,1.45,0,0,0-1.48-.75,1.48,1.48,0,0,0-1.33,1,7.38,7.38,0,0,0-.3,2.63c0,1.18.12,3,.33,5.38s.41,4.19.6,5.37a7.58,7.58,0,0,0,.75,2.53,1.49,1.49,0,0,0,1.48.79,1.45,1.45,0,0,0,1.33-1,5.77,5.77,0,0,0,.25-2.4l3-.26A8,8,0,0,1,159.18,182.92Zm9,.48-3,.26-1.78-20.59-3.16.27-.29-3.4,9.3-.81.3,3.4-3.19.28Zm13.62-3a4.12,4.12,0,0,1-3.55,2.08l-4.74.41-2.08-24,3-.25.81,9.4,1.78-.16a4.12,4.12,0,0,1,3.85,1.44q1.3,1.65,1.63,5.42T181.76,180.45Z"/><path class="cls-1" d="M178.78,172.17a1.56,1.56,0,0,0-1.64-.82l-1.67.14.67,7.79,1.67-.15a1.55,1.55,0,0,0,1.48-1.11,7.76,7.76,0,0,0,.17-3A7.57,7.57,0,0,0,178.78,172.17Z"/></g></g></svg>